# xmcd CD database file
#
# Track frame offsets:
#	150
#	13232
#	30710
#	50417
#	65422
#	83595
#	105025
#	123440
#	141172
#	155080
#	181557
#	193570
#	213162
#	226187
#	244925
#	261595
#
# Disc length: 3722 seconds
#
# Revision: 3
# Processed by: cddbd v1.5.2PL0 Copyright (c) Steve Scherf et al.
# Submitted via: CDex 1.51
#
DISCID=d10e8810
DTITLE=Rosemary Clooney and The Count Basie Orchestra - At Long Last
DYEAR=1900
DGENRE=Jazz
TTITLE0=Just In Time
TTITLE1=Like Someone In Love
TTITLE2=Willow Weep For Me
TTITLE3=Lulllaby Of Broadway
TTITLE4=Old Devil Moon
TTITLE5=Everything Happens To Me
TTITLE6=I Want To Be A Sideman
TTITLE7=In The Wee Small Hours Of The Morning
TTITLE8=How About You
TTITLE9=The Man That Got Away
TTITLE10=Seems Like Old Times
TTITLE11=Guess I'll Hang My Tears Out To Dry
TTITLE12=It Just Happened To Me
TTITLE13=I Got Rhythm
TTITLE14=Gypsy In My Soul
TTITLE15=If Swing Goes I Go Too
EXTD=
EXTT0=
EXTT1=
EXTT2=
EXTT3=
EXTT4=
EXTT5=
EXTT6=
EXTT7=
EXTT8=
EXTT9=
EXTT10=
EXTT11=
EXTT12=
EXTT13=
EXTT14=
EXTT15=
PLAYORDER=
